<?xml version="1.0" encoding="UTF-8"?>
<svg xmlns="http://www.w3.org/2000/svg" version="1.1" width="100" height="100" viewBox="0 0 100 100"><rect x="0" y="0" width="100" height="100" fill="#ffffff"/><g transform="scale(4)"><g transform="translate(0,0)"><path fill-rule="evenodd" d="M8 0L8 4L9 4L9 5L8 5L8 7L9 7L9 6L10 6L10 9L11 9L11 10L9 10L9 11L8 11L8 12L6 12L6 13L7 13L7 14L6 14L6 15L5 15L5 14L4 14L4 13L3 13L3 14L2 14L2 15L3 15L3 17L5 17L5 16L6 16L6 17L7 17L7 16L8 16L8 15L10 15L10 14L11 14L11 16L12 16L12 17L10 17L10 16L9 16L9 17L8 17L8 18L9 18L9 17L10 17L10 19L8 19L8 21L9 21L9 22L10 22L10 23L8 23L8 25L9 25L9 24L10 24L10 25L13 25L13 22L14 22L14 23L15 23L15 22L14 22L14 21L13 21L13 20L12 20L12 17L13 17L13 18L15 18L15 17L13 17L13 14L14 14L14 16L16 16L16 21L17 21L17 22L16 22L16 23L17 23L17 25L19 25L19 24L22 24L22 25L25 25L25 24L24 24L24 22L25 22L25 21L24 21L24 20L25 20L25 19L21 19L21 17L23 17L23 16L24 16L24 15L23 15L23 14L24 14L24 13L25 13L25 12L24 12L24 11L23 11L23 10L24 10L24 9L25 9L25 8L21 8L21 9L20 9L20 8L19 8L19 9L20 9L20 10L19 10L19 11L20 11L20 10L21 10L21 11L22 11L22 12L21 12L21 13L20 13L20 14L19 14L19 16L16 16L16 14L17 14L17 13L19 13L19 12L17 12L17 10L18 10L18 9L17 9L17 10L16 10L16 8L15 8L15 6L14 6L14 5L17 5L17 0L14 0L14 1L16 1L16 3L15 3L15 2L14 2L14 3L13 3L13 2L12 2L12 3L13 3L13 4L11 4L11 2L10 2L10 1L13 1L13 0L10 0L10 1L9 1L9 0ZM10 4L10 5L11 5L11 7L12 7L12 6L13 6L13 9L12 9L12 8L11 8L11 9L12 9L12 11L10 11L10 12L8 12L8 14L7 14L7 15L6 15L6 16L7 16L7 15L8 15L8 14L9 14L9 13L12 13L12 14L13 14L13 13L16 13L16 11L15 11L15 12L14 12L14 11L13 11L13 10L14 10L14 6L13 6L13 5L14 5L14 4L13 4L13 5L11 5L11 4ZM16 6L16 7L17 7L17 6ZM0 8L0 9L2 9L2 8ZM4 8L4 9L3 9L3 10L5 10L5 9L7 9L7 8ZM22 9L22 10L23 10L23 9ZM6 10L6 11L7 11L7 10ZM0 11L0 12L1 12L1 11ZM4 11L4 12L5 12L5 11ZM0 13L0 14L1 14L1 13ZM21 13L21 14L23 14L23 13ZM3 14L3 15L4 15L4 14ZM21 15L21 16L22 16L22 15ZM0 16L0 17L2 17L2 16ZM17 17L17 20L20 20L20 17ZM18 18L18 19L19 19L19 18ZM10 19L10 20L9 20L9 21L10 21L10 22L11 22L11 21L10 21L10 20L11 20L11 19ZM14 19L14 20L15 20L15 19ZM12 21L12 22L13 22L13 21ZM20 21L20 22L19 22L19 23L18 23L18 24L19 24L19 23L21 23L21 22L22 22L22 23L23 23L23 22L22 22L22 21ZM10 23L10 24L11 24L11 23ZM14 24L14 25L16 25L16 24ZM0 0L0 7L7 7L7 0ZM1 1L1 6L6 6L6 1ZM2 2L2 5L5 5L5 2ZM18 0L18 7L25 7L25 0ZM19 1L19 6L24 6L24 1ZM20 2L20 5L23 5L23 2ZM0 18L0 25L7 25L7 18ZM1 19L1 24L6 24L6 19ZM2 20L2 23L5 23L5 20Z" fill="#000000"/></g></g></svg>
