<?xml version="1.0" encoding="UTF-8"?>
<svg xmlns="http://www.w3.org/2000/svg" version="1.1" width="100" height="100" viewBox="0 0 100 100"><rect x="0" y="0" width="100" height="100" fill="#ffffff"/><g transform="scale(4)"><g transform="translate(0,0)"><path fill-rule="evenodd" d="M9 0L9 1L8 1L8 3L9 3L9 4L8 4L8 8L6 8L6 9L4 9L4 8L3 8L3 9L2 9L2 8L0 8L0 11L1 11L1 12L0 12L0 13L1 13L1 14L0 14L0 15L1 15L1 16L0 16L0 17L2 17L2 16L3 16L3 17L4 17L4 16L3 16L3 15L8 15L8 19L9 19L9 16L10 16L10 18L14 18L14 20L13 20L13 19L10 19L10 21L8 21L8 22L10 22L10 23L8 23L8 25L9 25L9 24L10 24L10 23L11 23L11 20L12 20L12 21L15 21L15 22L14 22L14 23L12 23L12 25L14 25L14 23L16 23L16 24L15 24L15 25L20 25L20 24L17 24L17 23L16 23L16 21L19 21L19 23L21 23L21 24L22 24L22 23L23 23L23 21L22 21L22 20L23 20L23 19L25 19L25 17L24 17L24 18L23 18L23 19L22 19L22 17L23 17L23 16L24 16L24 15L25 15L25 12L23 12L23 13L22 13L22 12L21 12L21 10L20 10L20 11L19 11L19 9L21 9L21 8L18 8L18 10L17 10L17 14L18 14L18 15L20 15L20 16L17 16L17 15L15 15L15 13L14 13L14 11L11 11L11 9L12 9L12 10L13 10L13 9L14 9L14 8L15 8L15 9L17 9L17 8L15 8L15 6L16 6L16 7L17 7L17 6L16 6L16 5L17 5L17 4L16 4L16 3L17 3L17 2L16 2L16 0L12 0L12 1L11 1L11 0ZM9 1L9 2L11 2L11 1ZM13 2L13 4L12 4L12 3L11 3L11 4L9 4L9 5L10 5L10 6L9 6L9 7L10 7L10 8L8 8L8 10L7 10L7 9L6 9L6 10L2 10L2 9L1 9L1 10L2 10L2 11L3 11L3 12L4 12L4 13L6 13L6 14L8 14L8 15L10 15L10 16L11 16L11 17L12 17L12 16L13 16L13 17L16 17L16 16L15 16L15 15L14 15L14 13L13 13L13 12L11 12L11 11L8 11L8 10L10 10L10 8L11 8L11 7L12 7L12 8L14 8L14 6L15 6L15 5L14 5L14 2ZM11 4L11 5L12 5L12 7L13 7L13 6L14 6L14 5L12 5L12 4ZM10 6L10 7L11 7L11 6ZM22 8L22 9L24 9L24 10L23 10L23 11L25 11L25 9L24 9L24 8ZM6 10L6 11L7 11L7 10ZM4 11L4 12L5 12L5 11ZM18 11L18 12L19 12L19 11ZM1 12L1 13L2 13L2 12ZM6 12L6 13L8 13L8 14L10 14L10 15L11 15L11 16L12 16L12 14L13 14L13 13L12 13L12 14L11 14L11 13L9 13L9 12ZM20 12L20 14L21 14L21 16L23 16L23 15L24 15L24 13L23 13L23 15L22 15L22 14L21 14L21 12ZM1 14L1 15L2 15L2 14ZM13 15L13 16L14 16L14 15ZM6 16L6 17L7 17L7 16ZM17 17L17 20L20 20L20 17ZM18 18L18 19L19 19L19 18ZM15 19L15 21L16 21L16 19ZM21 22L21 23L22 23L22 22ZM24 22L24 23L25 23L25 22ZM23 24L23 25L25 25L25 24ZM0 0L0 7L7 7L7 0ZM1 1L1 6L6 6L6 1ZM2 2L2 5L5 5L5 2ZM18 0L18 7L25 7L25 0ZM19 1L19 6L24 6L24 1ZM20 2L20 5L23 5L23 2ZM0 18L0 25L7 25L7 18ZM1 19L1 24L6 24L6 19ZM2 20L2 23L5 23L5 20Z" fill="#000000"/></g></g></svg>
