<?xml version="1.0" encoding="utf-8"?>
<!-- Generator: Adobe Illustrator 27.8.0, SVG Export Plug-In . SVG Version: 6.00 Build 0)  -->
<svg version="1.1" id="OBJECTS" xmlns="http://www.w3.org/2000/svg" xmlns:xlink="http://www.w3.org/1999/xlink" x="0px" y="0px"
	 viewBox="0 0 800 800" style="enable-background:new 0 0 800 800;" xml:space="preserve">
<style type="text/css">
	.st0{fill:#914706;}
	.st1{fill:#FF5B19;}
	.st2{fill:#FFEBDB;}
	.st3{fill:none;stroke:#FFEBDB;stroke-width:19.3758;stroke-linecap:round;stroke-linejoin:round;stroke-miterlimit:10;}
	.st4{fill:none;stroke:#FFEBDB;stroke-width:19.0806;stroke-linecap:round;stroke-linejoin:round;stroke-miterlimit:10;}
	.st5{fill:#402913;}
	.st6{fill:#FFD7C7;}
	.st7{fill:none;stroke:#FF9970;stroke-width:13.3281;stroke-linecap:round;stroke-miterlimit:10;}
	.st8{fill:none;stroke:#000000;stroke-width:1.2694;stroke-miterlimit:10;}
	.st9{fill:none;stroke:#000000;stroke-width:3.8517;stroke-linecap:round;stroke-linejoin:round;stroke-miterlimit:10;}
	.st10{fill:#D95B5B;}
	.st11{fill:none;stroke:#000000;stroke-width:3;stroke-linecap:round;stroke-miterlimit:10;}
	.st12{fill:#D6C6B8;}
	.st13{fill:none;}
	.st14{fill:#FFFFFF;}
	.st15{font-family:'FiraCode-SemiBold';}
	.st16{font-size:25.8127px;}
</style>
<g>
	<ellipse class="st0" cx="194.1" cy="543.7" rx="88" ry="13.5"/>
	<g>
		<path class="st1" d="M106.1,543.7c0,0-14.4,95.7,96.6,85.8c0,0,87.6,6.3,79.4-85.8H106.1z"/>
		<path class="st2" d="M245.7,543.7C246.4,543.6,245.7,542.9,245.7,543.7c11.7-18.6-16.6-58.8-37.9-44.3c0.6-16.3-3.8-24.9-20.6-24
			c-6.5,0.3-12.4,2.6-17.4-3.6c-3.9-4.8-3.7-15,4.4-14.4c-11-7.4-23.8,8-25.1,18c-1.5,12.3,13.9,20.2,10.9,30.7
			c-4,14-22.4,5.4-31.7,6.3c-10.6,1-23.6,21.8-22.3,31.3C106.1,543.7,140.6,552.6,245.7,543.7z"/>
	</g>
	<g>
		<path class="st1" d="M591.8,402.4c0,3.2-2.6,5.9-5.9,5.9l0,0c-3.2,0-5.9-2.6-5.9-5.9v-121c0-3.2,2.6-5.9,5.9-5.9l0,0
			c3.2,0,5.9,2.6,5.9,5.9V402.4z"/>
		<path class="st1" d="M606.2,277.4c0,11-8.9,19.9-19.9,19.9l0,0c-11,0-19.9-8.9-19.9-19.9v-20.8c0-11,8.9-19.9,19.9-19.9l0,0
			c11,0,19.9,8.9,19.9,19.9V277.4z"/>
		<path class="st0" d="M599,272.8c0,9.5-6.7,17.2-14.9,17.2l0,0c-8.2,0-14.9-7.7-14.9-17.2v-17.9c0-9.5,6.7-17.2,14.9-17.2l0,0
			c8.2,0,14.9,7.7,14.9,17.2V272.8z"/>
		<path class="st2" d="M571,265.6c-18-7-26.9-37.3-3.8-46.2c7.9-3.1,14.9,5.3,22.1,2.3c10-4.3,4.7-18.2-4.4-19.2
			c8.7-2.4,20.4,3.6,21.2,13.5c0.3,3.8-3.4,6.8-2.4,10.7c0.7,2.6,7.4,7.1,8.9,11c5.8,15.4-18.5,40-27.1,22
			c2.5,15.3-20.2,9.5-14.4,2.4"/>
	</g>
	<g>
		<path class="st3" d="M184.6,627.8c0,0-2.1,56.8,85.8,40.7c0,0,69.9-9.3,51.9-121.2"/>
		<path class="st4" d="M460.9,522c0,0-1.9,60.5,78.1,43.3c0,0,63.6-9.9,47.2-129.1"/>
		<path class="st2" d="M472.7,745.1c0,48.4-26.9,35.5-75.3,35.5v9.7c-48.4,0-87.3,7.5-87.3-40.9V560.8c0-48.4,39.2-87.6,87.6-87.6
			l0,0c48.4,0,87.6,39.2,87.6,87.6L472.7,745.1z"/>
		<path class="st2" d="M485.2,757c0,48.4-38.4,18.3-86.8,18.3l-1.1,5.4c-48.4,0-86.2,23.9-86.2-24.4l-1.1-195.4
			c0-48.4,39.2-87.6,87.6-87.6l0,0c48.4,0,87.6,39.2,87.6,87.6V757z"/>
		<path class="st1" d="M461.2,585.7v-88.6c-5.3-5-11.2-9.4-17.6-13c0.1,1.1,0.1,2.1,0.1,3.2v99.3c0,24.4-19.8,44.2-44.2,44.2
			c-24.4,0-44.2-19.8-44.2-44.2v-99.3c0-1.2,0.1-2.4,0.2-3.6c-6.6,3.7-12.8,8.2-18.2,13.4v88.6c0,0,6.2,27.5-27.1,41.2v174.2h178.1
			V626.8C455,613.2,461.2,585.7,461.2,585.7z"/>
		<path class="st5" d="M407.6,520.2c0,4.5-3.6,8.1-8.1,8.1c-4.5,0-8.1-3.6-8.1-8.1c0-4.5,3.6-8.1,8.1-8.1
			C404,512.1,407.6,515.7,407.6,520.2z"/>
		<path class="st5" d="M407.6,551.8c0,4.5-3.6,8.1-8.1,8.1c-4.5,0-8.1-3.6-8.1-8.1s3.6-8.1,8.1-8.1
			C404,543.7,407.6,547.3,407.6,551.8z"/>
		<path class="st5" d="M406.4,586.9c0,4.5-3.6,8.1-8.1,8.1c-4.5,0-8.1-3.6-8.1-8.1c0-4.5,3.6-8.1,8.1-8.1
			C402.8,578.8,406.4,582.4,406.4,586.9z"/>
		<path class="st6" d="M576.4,426.3c-11.4-0.6-15.6-18.8-13.6-28c1.9-8.4,21.9-19.8,20.6-6.5c-7.8,2.9-16.5,0.7-16.1,13.7
			c0.2,7.5,7.5,17.6,15.4,18c8.2,0.5,15.8-6.8,16.2-14.4c0.7-10.2-8.8-11.9-9.8-18.8c11-2,18.3,5.7,18.8,16.1
			c0.5,10-5.9,15.5-14.2,19.9c7.7,2.5,16-0.3,21.6-6.1c3.4-3.6,5.9-19.5,11.6-17.4c7.9,2.9-1.4,19.5-4.5,22.9
			c-5.8,6.2-16,9.8-24.1,8.8c9.7,4.4,20,3.4,28.6-2.4c4.6-3.1,13.2-17.3,17.2-8.4c4.2,9.2-12,18.5-18.1,20.8
			c-9,3.3-19.3,3.5-28.5,0.8c4.9,6.4,11.2,6.7,18.6,7.3c7.8,0.7,21.6,13.1,8.1,11.5c-13.5-1.6-35.7-5.4-35.2-21.1
			c-6.3,5-15-11.1-11.8-13"/>
		<path class="st6" d="M156.6,635.7c-11.1,3.3-16.8-22.4-8.9-29.7c7,2.1,1.5,11,3.4,16.2c2.1,5.7,7.9,7.8,12.8,10.4
			c-7.2-5.1-13.6-24.1-3.7-29.5c4.5,3.4,2.5,12.4,4.3,17.4c1.9,5.5,5.7,12.3,11.7,14.1c-3.9-3.7-17.5-31.1-3.4-29.8
			c6.9,0.6,2,12.6,2.9,16.3c1.5,6.1,7.4,10.2,13,11.6c-5.1-5.9-18.2-25.7-2.4-28.7c5.4,8.3,1.3,16.3,9.2,24.1
			c2.6,2.5,9.2,0.9,5.2,7.4c-2,3.3-8.2,3.5-11,1.2c-3.3,3.7-7.7,5.6-11.3,1.6c-2.6,4.2-7.5,4.9-9.9,0.2c-3.1,3.7-7.7,4.1-10.2-0.3"
			/>
	</g>
	<g>
		<path class="st6" d="M333.6,395.6c0,14-11.3,25.3-25.3,25.3c-14,0-25.3-11.3-25.3-25.3c0-14,11.3-25.3,25.3-25.3
			C322.3,370.3,333.6,381.7,333.6,395.6z"/>
		<path class="st6" d="M512.3,395.6c0,14-11.3,25.3-25.3,25.3c-14,0-25.3-11.3-25.3-25.3c0-14,11.3-25.3,25.3-25.3
			C501,370.3,512.3,381.7,512.3,395.6z"/>
		<path class="st6" d="M487.9,409.6c0,50.1-40.6,90.7-90.7,90.7l0,0c-50.1,0-90.7-40.6-90.7-90.7v-19.9c0-50.1,40.6-90.7,90.7-90.7
			l0,0c50.1,0,90.7,40.6,90.7,90.7V409.6z"/>
		<path class="st7" d="M378.5,442.4c0,0,15.4,17.4,39.9,0"/>
		<path class="st8" d="M378.5,442.4c0,0,15.4,17.4,39.9,0"/>
		<path class="st9" d="M385.5,422.6c-3.8-9.9-22.7-10.3-31.2-8.1c-4.9,1.3-8.2,3.7-11.2,7.7c-2.7,3.5-4.4,7-9,8.1
			c-9.8,2.4-16.9-6.7-14.3-16.1c2.9-10.2,13.8-2.5,9,2.3c-1.3,1.3-2.9,0.8-3.1,0.1"/>
		<path class="st9" d="M404.5,422.6c3.8-9.9,22.7-10.3,31.2-8.1c4.9,1.3,8.2,3.7,11.2,7.7c2.7,3.5,4.4,7,9,8.1
			c9.8,2.4,16.9-6.7,14.3-16.1c-2.9-10.2-13.8-2.5-9,2.3c1.3,1.3,2.9,0.8,3.1,0.1"/>
		<path class="st10" d="M412.7,416.6c0,8.5-6.9,15.4-15.4,15.4l0,0c-8.5,0-15.4-6.9-15.4-15.4v-22.8c0-8.5,6.9-15.4,15.4-15.4l0,0
			c8.5,0,15.4,6.9,15.4,15.4V416.6z"/>
		<path class="st11" d="M346.6,356.2v16.2c0,0,1.6,11.6,15.6,10.4c0,0,11.2,0,14-10.8v-16.8"/>
		<path class="st11" d="M448,355.1v17.2c0,0-1.6,11.6-15.6,10.4c0,0-11.2,0-14-10.8v-16.8"/>
		<path class="st10" d="M374.7,401c0,4.1-8.4,7.4-18.8,7.4S337,405.1,337,401s8.4-7.4,18.8-7.4S374.7,396.9,374.7,401z"/>
		<ellipse class="st10" cx="437.2" cy="401" rx="18.8" ry="7.4"/>
	</g>
	<g>
		<path class="st2" d="M316,343.3c0,0,76.8-28.9,161.7,0V179c0,0,49.1,9.9,55.4-30.7c0,0,16.1-61.4-47.4-61.4c0,0-16.1-43.3-76-46.9
			c0,0-62.5-7.2-72.4,31.6c0,0-59-12.6-66.1,41.5c0,0-5.4,49.6,41.1,61.4l2.1,98.4L316,343.3z"/>
		<path class="st12" d="M477.7,343.3v-71.8c-2-0.7-4.1-1.5-6.3-2.2c-67-22.6-152.8,4.5-152.8,4.5l-4.1,2.8l1.4,66.8
			C316,343.3,392.8,314.4,477.7,343.3z"/>
		<path class="st1" d="M341.3,337.1c-0.3,8.7-7.8,15.5-16.7,15.2c-8.9-0.3-15.9-7.7-15.5-16.4c0.3-8.7,7.8-15.5,16.7-15.2
			C334.6,321,341.6,328.3,341.3,337.1z"/>
		<path class="st1" d="M369.2,329c-0.3,8.7-7.8,15.5-16.7,15.2c-8.9-0.3-15.8-7.7-15.5-16.4c0.3-8.7,7.8-15.5,16.7-15.2
			C362.6,313,369.5,320.3,369.2,329z"/>
		<path class="st1" d="M399.7,327.4c-0.3,8.7-7.8,15.5-16.7,15.2c-8.9-0.3-15.9-7.7-15.5-16.4c0.3-8.7,7.8-15.5,16.7-15.2
			C393,311.4,400,318.7,399.7,327.4z"/>
		<path class="st1" d="M430.1,327.7c-0.3,8.7-7.8,15.5-16.7,15.2c-8.9-0.3-15.9-7.7-15.5-16.4c0.3-8.7,7.8-15.5,16.7-15.2
			C423.4,311.6,430.4,318.9,430.1,327.7z"/>
		<path class="st1" d="M461.3,331.5c-0.3,8.7-7.8,15.5-16.7,15.2c-8.9-0.3-15.9-7.7-15.5-16.4c0.3-8.7,7.8-15.5,16.7-15.2
			C454.6,315.4,461.6,322.8,461.3,331.5z"/>
		<path class="st1" d="M490.4,340.7c-0.3,8.7-7.8,15.5-16.7,15.2c-8.9-0.3-15.9-7.7-15.5-16.4c0.3-8.7,7.8-15.5,16.7-15.2
			C483.8,324.6,490.7,332,490.4,340.7z"/>
	</g>
</g>
<g>
	<ellipse class="st1" cx="169.4" cy="275.1" rx="79.6" ry="62.4"/>
	<path class="st1" d="M184.4,326.8c0,0,11.8,50.5,55.9,50.5c0,0-38.7-7.5-40.9-51.6"/>
</g>
<rect x="114.6" y="264.5" class="st13" width="117" height="39.1"/>
<text transform="matrix(1 0 0 1 114.6193 284.5148)" class="st14 st15 st16">WELCOME</text>
</svg>
